<svg xmlns="http://www.w3.org/2000/svg" style="display: none;">
  <!-- Code Icon -->
  <symbol id="icon-code" viewBox="0 0 24 24" fill="none" stroke="currentColor" stroke-width="2" stroke-linecap="round" stroke-linejoin="round">
    <polyline points="16 18 22 12 16 6" />
    <polyline points="8 6 2 12 8 18" />
  </symbol>

  <!-- Upload Icon -->
  <symbol id="icon-upload" viewBox="0 0 24 24" fill="none" stroke="currentColor" stroke-width="2" stroke-linecap="round" stroke-linejoin="round">
    <path d="M21 15v4a2 2 0 0 1-2 2H5a2 2 0 0 1-2-2v-4" />
    <polyline points="17 8 12 3 7 8" />
    <line x1="12" y1="3" x2="12" y2="15" />
  </symbol>
  <!-- Format Icon (Magic Wand) -->
  <symbol id="icon-format" viewBox="0 0 24 24" fill="none" stroke="currentColor" stroke-width="2" stroke-linecap="round" stroke-linejoin="round">
    <path d="M15 4V2" />
    <path d="M15 16v-2" />
    <path d="M8 9h2" />
    <path d="M20 9h2" />
    <path d="M17.8 11.8 19 13" />
    <path d="M15 9h0" />
    <path d="M17.8 6.2 19 5" />
    <path d="m3 21 9-9" />
    <path d="M12.2 6.2 11 5" />
  </symbol>
</svg>
